# This file uses centimeters as units for non-parametric coordinates.

mtllib BigBetaWeakPoint.mtl
g default
v -5.098862 -5.098862 5.098862
v 5.098862 -5.098862 5.098862
v -5.098862 5.098862 5.098861
v 5.098862 5.098862 5.098861
v -5.098862 5.098862 -5.098862
v 5.098862 5.098861 -5.098862
v -5.098862 -5.098862 -5.098862
v 5.098862 -5.098862 -5.098862
v -6.440209 6.440209 -0.000000
v 6.440209 0.000000 -6.440209
v 0.000000 -6.440209 -6.440209
v -6.440209 -0.000000 -6.440209
v 6.440209 -6.440209 -0.000000
v -6.440209 -6.440209 0.000000
v 0.000000 -6.440209 6.440209
v 6.440209 -0.000000 6.440209
v 0.000000 6.440209 6.440209
v -6.440209 0.000000 6.440209
v 6.440209 6.440209 0.000000
v 0.000000 6.440209 -6.440209
v 0.000000 -0.000000 8.795536
v 0.000000 8.795536 -0.000000
v 0.000000 -0.000000 -8.795536
v 0.000000 -8.795536 0.000000
v 8.795536 -0.000000 0.000000
v -8.795536 -0.000000 -0.000000
v -3.267906 -3.267907 7.648293
v 3.267907 -3.267907 7.648293
v 3.267906 3.267907 7.648293
v -3.267907 3.267907 7.648293
v -3.267907 7.648293 3.267906
v 3.267906 7.648293 3.267906
v 3.267906 7.648293 -3.267907
v -3.267907 7.648293 -3.267906
v -3.267907 3.267906 -7.648293
v 3.267906 3.267906 -7.648293
v 3.267906 -3.267907 -7.648293
v -3.267907 -3.267906 -7.648293
v -3.267907 -7.648293 -3.267906
v 3.267906 -7.648293 -3.267906
v 3.267906 -7.648293 3.267907
v -3.267907 -7.648293 3.267906
v 7.648293 -3.267907 3.267907
v 7.648293 -3.267906 -3.267906
v 7.648293 3.267907 -3.267906
v 7.648293 3.267907 3.267906
v -7.648293 -3.267907 -3.267907
v -7.648293 -3.267906 3.267906
v -7.648293 3.267907 3.267906
v -7.648293 3.267907 -3.267906
v -0.000000 -3.511261 8.204532
v 3.511261 -0.000000 8.204532
v 0.000000 3.511261 8.204532
v -3.511261 0.000000 8.204531
v -0.000000 8.204532 3.511261
v 3.511261 8.204532 0.000000
v 0.000000 8.204532 -3.511261
v -3.511261 8.204531 -0.000000
v -0.000000 3.511261 -8.204532
v 3.511261 0.000000 -8.204532
v 0.000000 -3.511261 -8.204532
v -3.511261 -0.000000 -8.204531
v -0.000000 -8.204532 -3.511261
v 3.511261 -8.204532 -0.000000
v 0.000000 -8.204532 3.511261
v -3.511261 -8.204531 0.000000
v 8.204532 -3.511261 0.000000
v 8.204532 -0.000000 -3.511261
v 8.204532 3.511261 -0.000000
v 8.204531 0.000000 3.511261
v -8.204532 -3.511261 -0.000000
v -8.204532 -0.000000 3.511261
v -8.204532 3.511261 0.000000
v -8.204531 0.000000 -3.511261
v -3.024551 -5.996956 5.996956
v 3.024551 -5.996956 5.996956
v 5.996956 -3.024551 5.996956
v 5.996956 3.024551 5.996956
v 3.024551 5.996956 5.996956
v -3.024551 5.996956 5.996956
v -5.996956 3.024551 5.996956
v -5.996956 -3.024551 5.996956
v 5.996956 5.996956 3.024551
v 5.996956 5.996956 -3.024551
v 3.024551 5.996956 -5.996956
v -3.024551 5.996956 -5.996956
v -5.996956 5.996956 -3.024551
v -5.996956 5.996956 3.024551
v 5.996956 3.024551 -5.996956
v 5.996956 -3.024551 -5.996956
v 3.024551 -5.996956 -5.996956
v -3.024551 -5.996956 -5.996956
v -5.996956 -3.024551 -5.996956
v -5.996956 3.024551 -5.996956
v 5.996956 -5.996956 -3.024551
v 5.996956 -5.996956 3.024551
v -5.996956 -5.996956 3.024551
v -5.996956 -5.996956 -3.024551
vt 0.330790 0.045445
vt 0.955904 0.959826
vt 0.654467 0.044215
vt 0.959230 0.670255
vt 0.350508 0.329096
vt 0.636907 0.328007
vt 0.041707 0.956119
vt 0.049706 0.358252
vt 0.644143 0.631886
vt 0.937922 0.354875
vt 0.666334 0.956500
vt 0.026768 0.061173
vt 0.330312 0.665548
vt 0.958600 0.057629
vt 0.493120 0.174017
vt 0.494334 0.493386
vt 0.186009 0.810834
vt 0.812782 0.813378
vt 0.809240 0.196277
vt 0.177178 0.198680
vt 0.492486 0.007347
vt 0.982106 0.815323
vt 0.649952 0.184123
vt 0.493728 0.333966
vt 0.336369 0.185316
vt 0.666906 0.482546
vt 0.787807 0.367672
vt 0.016675 0.811409
vt 0.321685 0.483859
vt 0.199914 0.369908
vt 0.185435 0.641499
vt 0.975641 0.208152
vt 0.643457 0.811433
vt 0.186584 0.980168
vt 0.010872 0.211821
vt 0.814727 0.644054
vt 0.811338 0.024008
vt 0.810837 0.982702
vt 0.173770 0.026432
vt 0.410116 0.096869
vt 0.575534 0.096240
vt 0.571573 0.257840
vt 0.415306 0.258434
vt 0.410443 0.409094
vt 0.577582 0.408458
vt 0.579224 0.571130
vt 0.410039 0.571774
vt 0.104481 0.892918
vt 0.103925 0.729305
vt 0.267538 0.728749
vt 0.268094 0.892363
vt 0.730041 0.894240
vt 0.731920 0.730637
vt 0.895523 0.732516
vt 0.893644 0.896119
vt 0.730164 0.107302
vt 0.893089 0.117737
vt 0.881514 0.286099
vt 0.719703 0.273466
vt 0.092735 0.120781
vt 0.255576 0.109107
vt 0.267299 0.275186
vt 0.105590 0.289050
vt 0.492795 0.088665
vt 0.574481 0.177555
vt 0.493440 0.258163
vt 0.411788 0.178173
vt 0.494020 0.410621
vt 0.583463 0.489145
vt 0.494655 0.577597
vt 0.405176 0.489822
vt 0.099679 0.811127
vt 0.185716 0.724503
vt 0.272340 0.810541
vt 0.186303 0.897165
vt 0.726456 0.812387
vt 0.813773 0.727052
vt 0.899108 0.814369
vt 0.811790 0.899704
vt 0.811483 0.107470
vt 0.893353 0.202313
vt 0.799574 0.284800
vt 0.726531 0.190166
vt 0.174260 0.109894
vt 0.259838 0.191940
vt 0.187517 0.287128
vt 0.093114 0.205356
vt 0.401039 0.018277
vt 0.973526 0.897674
vt 0.584014 0.017581
vt 0.975420 0.732796
vt 0.653028 0.106717
vt 0.645054 0.262193
vt 0.571476 0.332741
vt 0.415974 0.333332
vt 0.341861 0.263346
vt 0.332705 0.107935
vt 0.657454 0.396113
vt 0.702697 0.352598
vt 0.660550 0.567967
vt 0.873173 0.366989
vt 0.024029 0.728939
vt 0.024589 0.893827
vt 0.328691 0.569229
vt 0.114545 0.369873
vt 0.330479 0.397357
vt 0.284907 0.354187
vt 0.103017 0.649413
vt 0.961206 0.292756
vt 0.267904 0.648853
vt 0.973018 0.122375
vt 0.652038 0.729082
vt 0.650144 0.893960
vt 0.269002 0.972254
vt 0.012843 0.126026
vt 0.104114 0.972814
vt 0.025950 0.296312
vt 0.732200 0.650740
vt 0.896083 0.036560
vt 0.897078 0.652634
vt 0.724277 0.027458
vt 0.893364 0.976016
vt 0.260855 0.029220
vt 0.728486 0.974122
vt 0.089123 0.039629
vt 0.580539 0.651129
vt 0.040724 0.666531
vt 0.494968 0.660051
vt 0.409331 0.651780
vt 0.345583 0.633022
vt 0.347430 0.727841
vt 0.669659 0.666930
vt 0.355344 0.810259
vt 0.347990 0.892729
vt 0.331295 0.955136
vn -0.577350 -0.577350 0.577350
vn -0.313219 -0.671526 0.671526
vn -0.329322 -0.329322 0.884926
vn -0.671526 -0.313220 0.671526
vn -0.000000 -0.707107 0.707107
vn -0.000000 -0.345160 0.938544
vn -0.000000 0.000000 1.000000
vn -0.345160 0.000000 0.938544
vn -0.707107 0.000000 0.707107
vn 0.313220 -0.671526 0.671526
vn 0.329322 -0.329322 0.884926
vn 0.577350 -0.577350 0.577350
vn 0.671526 -0.313219 0.671526
vn 0.707107 0.000000 0.707107
vn 0.345160 0.000000 0.938544
vn 0.329322 0.329322 0.884926
vn -0.000000 0.345160 0.938544
vn 0.671526 0.313219 0.671526
vn 0.577350 0.577350 0.577350
vn 0.313220 0.671526 0.671526
vn -0.000000 0.707107 0.707107
vn -0.329322 0.329322 0.884926
vn -0.671526 0.313220 0.671526
vn -0.313219 0.671526 0.671526
vn -0.577350 0.577350 0.577350
vn -0.329322 0.884926 0.329322
vn -0.671526 0.671526 0.313220
vn -0.000000 0.938544 0.345160
vn -0.000000 1.000000 0.000000
vn -0.345160 0.938544 -0.000000
vn -0.707107 0.707107 0.000000
vn 0.329322 0.884926 0.329322
vn 0.671526 0.671526 0.313220
vn 0.707107 0.707107 -0.000000
vn 0.345160 0.938544 -0.000000
vn 0.329322 0.884926 -0.329322
vn -0.000000 0.938544 -0.345160
vn 0.671526 0.671526 -0.313220
vn 0.577350 0.577350 -0.577350
vn 0.313220 0.671526 -0.671526
vn -0.000000 0.707107 -0.707107
vn -0.329322 0.884926 -0.329322
vn -0.671526 0.671526 -0.313219
vn -0.313220 0.671526 -0.671526
vn -0.577350 0.577350 -0.577350
vn -0.329322 0.329322 -0.884926
vn -0.671526 0.313219 -0.671526
vn -0.000000 0.345160 -0.938544
vn -0.000000 0.000000 -1.000000
vn -0.345160 -0.000000 -0.938544
vn -0.707107 0.000000 -0.707107
vn 0.329322 0.329322 -0.884926
vn 0.671526 0.313220 -0.671526
vn 0.707107 0.000000 -0.707107
vn 0.345160 0.000000 -0.938544
vn 0.329322 -0.329322 -0.884926
vn -0.000000 -0.345160 -0.938544
vn 0.671526 -0.313219 -0.671526
vn 0.577350 -0.577350 -0.577350
vn 0.313220 -0.671526 -0.671526
vn -0.000000 -0.707107 -0.707107
vn -0.329322 -0.329322 -0.884926
vn -0.671526 -0.313219 -0.671526
vn -0.313220 -0.671526 -0.671526
vn -0.577350 -0.577350 -0.577350
vn -0.329322 -0.884926 -0.329322
vn -0.671526 -0.671526 -0.313219
vn -0.000000 -0.938544 -0.345160
vn -0.000000 -1.000000 -0.000000
vn -0.345160 -0.938544 0.000000
vn -0.707107 -0.707107 0.000000
vn 0.329322 -0.884926 -0.329322
vn 0.671526 -0.671526 -0.313220
vn 0.707107 -0.707107 0.000000
vn 0.345160 -0.938544 0.000000
vn 0.329322 -0.884926 0.329322
vn -0.000000 -0.938544 0.345160
vn 0.671526 -0.671526 0.313220
vn -0.329322 -0.884926 0.329322
vn -0.671526 -0.671526 0.313219
vn 0.884926 -0.329322 0.329322
vn 0.938544 -0.345160 0.000000
vn 1.000000 -0.000000 0.000000
vn 0.938544 0.000000 0.345160
vn 0.884926 -0.329322 -0.329322
vn 0.938544 0.000000 -0.345160
vn 0.884926 0.329322 -0.329322
vn 0.938544 0.345160 -0.000000
vn 0.884926 0.329322 0.329322
vn -0.884926 -0.329322 -0.329322
vn -0.938544 -0.345160 -0.000000
vn -1.000000 0.000000 -0.000000
vn -0.938544 0.000000 -0.345160
vn -0.884926 -0.329322 0.329322
vn -0.938544 0.000000 0.345160
vn -0.884926 0.329322 0.329322
vn -0.938544 0.345160 0.000000
vn -0.884926 0.329322 -0.329322
s 1
g pCube16
usemtl initialShadingGroup
f 1/1/1 75/88/2 27/40/3 82/97/4
f 75/88/2 15/21/5 51/64/6 27/40/3
f 27/40/3 51/64/6 21/15/7 54/67/8
f 82/97/4 27/40/3 54/67/8 18/25/9
f 15/21/5 76/90/10 28/41/11 51/64/6
f 76/90/10 2/3/12 77/92/13 28/41/11
f 28/41/11 77/92/13 16/23/14 52/65/15
f 51/64/6 28/41/11 52/65/15 21/15/7
f 21/15/7 52/65/15 29/42/16 53/66/17
f 52/65/15 16/23/14 78/93/18 29/42/16
f 29/42/16 78/93/18 4/6/19 79/94/20
f 53/66/17 29/42/16 79/94/20 17/24/21
f 18/25/9 54/67/8 30/43/22 81/96/23
f 54/67/8 21/15/7 53/66/17 30/43/22
f 30/43/22 53/66/17 17/24/21 80/95/24
f 81/96/23 30/43/22 80/95/24 3/5/25
f 3/5/25 80/95/24 31/44/26 88/106/27
f 80/95/24 17/24/21 55/68/28 31/44/26
f 31/44/26 55/68/28 22/16/29 58/71/30
f 88/106/27 31/44/26 58/71/30 9/29/31
f 17/24/21 79/94/20 32/45/32 55/68/28
f 79/94/20 4/6/19 83/98/33 32/45/32
f 32/45/32 83/98/33 19/26/34 56/69/35
f 55/68/28 32/45/32 56/69/35 22/16/29
f 22/16/29 56/69/35 33/46/36 57/70/37
f 56/69/35 19/26/34 84/100/38 33/46/36
f 33/46/36 84/100/38 6/9/39 85/126/40
f 57/70/37 33/46/36 85/126/40 20/128/41
f 9/29/31 58/71/30 34/47/42 87/104/43
f 58/71/30 22/16/29 57/70/37 34/47/42
f 34/47/42 57/70/37 20/128/41 86/129/44
f 87/104/43 34/47/42 86/129/44 5/130/45
f 5/7/45 86/103/44 35/48/46 94/116/47
f 86/103/44 20/28/41 59/72/48 35/48/46
f 35/48/46 59/72/48 23/17/49 62/75/50
f 94/116/47 35/48/46 62/75/50 12/34/51
f 20/28/41 85/102/40 36/49/52 59/72/48
f 85/102/40 6/127/39 89/108/53 36/49/52
f 36/49/52 89/108/53 10/31/54 60/73/55
f 59/72/48 36/49/52 60/73/55 23/17/49
f 23/17/49 60/73/55 37/50/56 61/74/57
f 60/73/55 10/31/54 90/110/58 37/50/56
f 37/50/56 90/110/58 8/13/59 91/131/60
f 61/74/57 37/50/56 91/131/60 11/133/61
f 12/34/51 62/75/50 38/51/62 93/114/63
f 62/75/50 23/17/49 61/74/57 38/51/62
f 38/51/62 61/74/57 11/133/61 92/134/64
f 93/114/63 38/51/62 92/134/64 7/135/65
f 7/11/65 92/113/64 39/52/66 98/124/67
f 92/113/64 11/33/61 63/76/68 39/52/66
f 39/52/66 63/76/68 24/18/69 66/79/70
f 98/124/67 39/52/66 66/79/70 14/38/71
f 11/33/61 91/112/60 40/53/72 63/76/68
f 91/112/60 8/132/59 95/118/73 40/53/72
f 40/53/72 95/118/73 13/36/74 64/77/75
f 63/76/68 40/53/72 64/77/75 24/18/69
f 24/18/69 64/77/75 41/54/76 65/78/77
f 64/77/75 13/36/74 96/120/78 41/54/76
f 41/54/76 96/120/78 2/4/12 76/91/10
f 65/78/77 41/54/76 76/91/10 15/22/5
f 14/38/71 66/79/70 42/55/79 97/122/80
f 66/79/70 24/18/69 65/78/77 42/55/79
f 42/55/79 65/78/77 15/22/5 75/89/2
f 97/122/80 42/55/79 75/89/2 1/2/1
f 2/3/12 96/121/78 43/56/81 77/92/13
f 96/121/78 13/37/74 67/80/82 43/56/81
f 43/56/81 67/80/82 25/19/83 70/83/84
f 77/92/13 43/56/81 70/83/84 16/23/14
f 13/37/74 95/119/73 44/57/85 67/80/82
f 95/119/73 8/14/59 90/111/58 44/57/85
f 44/57/85 90/111/58 10/32/54 68/81/86
f 67/80/82 44/57/85 68/81/86 25/19/83
f 25/19/83 68/81/86 45/58/87 69/82/88
f 68/81/86 10/32/54 89/109/53 45/58/87
f 45/58/87 89/109/53 6/10/39 84/101/38
f 69/82/88 45/58/87 84/101/38 19/27/34
f 16/23/14 70/83/84 46/59/89 78/93/18
f 70/83/84 25/19/83 69/82/88 46/59/89
f 46/59/89 69/82/88 19/27/34 83/99/33
f 78/93/18 46/59/89 83/99/33 4/6/19
f 7/12/65 98/125/67 47/60/90 93/115/63
f 98/125/67 14/39/71 71/84/91 47/60/90
f 47/60/90 71/84/91 26/20/92 74/87/93
f 93/115/63 47/60/90 74/87/93 12/35/51
f 14/39/71 97/123/80 48/61/94 71/84/91
f 97/123/80 1/1/1 82/97/4 48/61/94
f 48/61/94 82/97/4 18/25/9 72/85/95
f 71/84/91 48/61/94 72/85/95 26/20/92
f 26/20/92 72/85/95 49/62/96 73/86/97
f 72/85/95 18/25/9 81/96/23 49/62/96
f 49/62/96 81/96/23 3/5/25 88/107/27
f 73/86/97 49/62/96 88/107/27 9/30/31
f 12/35/51 74/87/93 50/63/98 94/117/47
f 74/87/93 26/20/92 73/86/97 50/63/98
f 50/63/98 73/86/97 9/30/31 87/105/43
f 94/117/47 50/63/98 87/105/43 5/8/45
