# This file uses centimeters as units for non-parametric coordinates.

mtllib ShowCaseSmall.mtl
g default
v -1.263388 2.682203 0.410234
v 1.320328 2.682203 0.410234
v -1.263388 3.344702 0.410234
v 1.320328 3.344702 0.410234
v -1.263388 3.344702 -0.589766
v 1.320328 3.344702 -0.589766
v -1.263388 2.682203 -0.589766
v 1.320328 2.682203 -0.589766
vt 0.980615 0.288631
vt 0.982062 0.782357
vt 0.855464 0.782728
vt 0.854017 0.289002
vt 0.664373 0.783288
vt 0.662926 0.289563
vt 0.537776 0.783659
vt 0.536329 0.289933
vt 0.982622 0.973448
vt 0.856025 0.973819
vt 0.980055 0.097540
vt 0.853458 0.097911
vn 0.000000 0.000000 1.000000
vn 0.000000 0.000000 1.000000
vn 0.000000 0.000000 1.000000
vn 0.000000 0.000000 1.000000
vn 0.000000 1.000000 0.000000
vn 0.000000 1.000000 0.000000
vn 0.000000 1.000000 0.000000
vn 0.000000 1.000000 0.000000
vn 0.000000 0.000000 -1.000000
vn 0.000000 0.000000 -1.000000
vn 0.000000 0.000000 -1.000000
vn 0.000000 0.000000 -1.000000
vn 1.000000 0.000000 0.000000
vn 1.000000 0.000000 0.000000
vn 1.000000 0.000000 0.000000
vn 1.000000 0.000000 0.000000
vn -1.000000 0.000000 0.000000
vn -1.000000 0.000000 0.000000
vn -1.000000 0.000000 0.000000
vn -1.000000 0.000000 0.000000
s off
g polySurface3 pCube6
usemtl initialShadingGroup
f 1/1/1 2/2/2 4/3/3 3/4/4
f 3/4/5 4/3/6 6/5/7 5/6/8
f 5/6/9 6/5/10 8/7/11 7/8/12
f 2/2/13 8/9/14 6/10/15 4/3/16
f 7/11/17 1/1/18 3/4/19 5/12/20
g default
v -1.251228 0.013726 0.410841
v 1.308169 0.013726 0.410841
v -1.251228 2.620896 0.410841
v 1.308169 2.620896 0.410841
v -1.251228 2.620896 -0.589159
v 1.308169 2.620896 -0.589159
v -1.251228 0.013726 -0.589159
v 1.308169 0.013726 -0.589159
v -1.274519 2.620896 0.435099
v 1.331460 2.620896 0.435099
v 1.331460 2.620896 -0.613417
v -1.274519 2.620896 -0.613417
v -1.274519 2.716570 0.435099
v 1.331460 2.716570 0.435099
v 1.331460 2.716570 -0.613417
v -1.274519 2.716570 -0.613417
vt 0.125952 0.037011
vt 0.409700 0.036666
vt 0.410599 0.327505
vt 0.125192 0.328722
vt 0.129648 0.338475
vt 0.406773 0.337306
vt 0.408092 0.449483
vt 0.131274 0.450070
vt 0.127429 0.459830
vt 0.412488 0.459352
vt 0.411349 0.751238
vt 0.127752 0.750505
vt 0.410907 0.863008
vt 0.127346 0.862179
vt 0.520550 0.036355
vt 0.521335 0.327388
vt 0.015186 0.036669
vt 0.014373 0.328232
vt 0.410607 0.328577
vt 0.125233 0.329902
vt 0.412470 0.458111
vt 0.127431 0.458760
vn 0.000000 0.000000 1.000000
vn 0.000000 0.000000 1.000000
vn 0.000000 0.000000 1.000000
vn 0.000000 0.000000 1.000000
vn 0.000000 1.000000 0.000000
vn 0.000000 1.000000 0.000000
vn 0.000000 1.000000 0.000000
vn 0.000000 1.000000 0.000000
vn 0.000000 0.000000 -1.000000
vn 0.000000 0.000000 -1.000000
vn 0.000000 0.000000 -1.000000
vn 0.000000 0.000000 -1.000000
vn 0.000000 -1.000000 0.000000
vn 0.000000 -1.000000 0.000000
vn 0.000000 -1.000000 0.000000
vn 0.000000 -1.000000 0.000000
vn 1.000000 0.000000 0.000000
vn 1.000000 0.000000 0.000000
vn 1.000000 0.000000 0.000000
vn 1.000000 0.000000 0.000000
vn -1.000000 0.000000 0.000000
vn -1.000000 0.000000 0.000000
vn -1.000000 0.000000 0.000000
vn -1.000000 0.000000 0.000000
vn 0.000000 -1.000000 0.000005
vn 0.000000 -1.000000 0.000005
vn 0.000000 -1.000000 0.000005
vn 0.000000 -1.000000 0.000005
vn 0.000000 -1.000000 0.000000
vn 0.000000 -1.000000 0.000000
vn 0.000000 -1.000000 0.000000
vn 0.000000 -1.000000 0.000000
vn 0.000000 -1.000000 -0.000005
vn 0.000000 -1.000000 -0.000005
vn 0.000000 -1.000000 -0.000005
vn 0.000000 -1.000000 -0.000005
vn 0.000000 -1.000000 0.000000
vn 0.000000 -1.000000 0.000000
vn 0.000000 -1.000000 0.000000
vn 0.000000 -1.000000 0.000000
vn 0.000000 0.000000 1.000000
vn 0.000000 0.000000 1.000000
vn 0.000000 0.000000 1.000000
vn 0.000000 0.000000 1.000000
vn 1.000000 0.000000 0.000000
vn 1.000000 0.000000 0.000000
vn 1.000000 0.000000 0.000000
vn 1.000000 0.000000 0.000000
vn 0.000000 0.000000 -1.000000
vn 0.000000 0.000000 -1.000000
vn 0.000000 0.000000 -1.000000
vn 0.000000 0.000000 -1.000000
vn -1.000000 0.000000 0.000000
vn -1.000000 0.000000 0.000000
vn -1.000000 0.000000 0.000000
vn -1.000000 0.000000 0.000000
s off
g pCube6 polySurface4
usemtl initialShadingGroup
f 9/13/21 10/14/22 12/15/23 11/16/24
f 21/17/25 22/18/26 23/19/27 24/20/28
f 13/21/29 14/22/30 16/23/31 15/24/32
f 15/24/33 16/23/34 10/25/35 9/26/36
f 10/14/37 16/27/38 14/28/39 12/15/40
f 15/29/41 9/13/42 11/16/43 13/30/44
f 11/16/45 12/15/46 18/31/47 17/32/48
f 12/15/49 14/22/50 19/33/51 18/31/52
f 14/22/53 13/21/54 20/34/55 19/33/56
f 13/21/57 11/16/58 17/32/59 20/34/60
f 17/32/61 18/31/62 22/18/63 21/17/64
f 18/31/65 19/33/66 23/19/67 22/18/68
f 19/33/69 20/34/70 24/20/71 23/19/72
f 20/34/73 17/32/74 21/17/75 24/20/76
