# This file uses centimeters as units for non-parametric coordinates.

mtllib ShowCaseSmall.mtl
g default
v -1.263388 2.682203 0.410234
v 1.320328 2.682203 0.410234
v -1.263388 3.344702 0.410234
v 1.320328 3.344702 0.410234
v -1.263388 3.344702 -0.589766
v 1.320328 3.344702 -0.589766
v -1.263388 2.682203 -0.589766
v 1.320328 2.682203 -0.589766
v -1.251228 0.013726 0.410841
v 1.308169 0.013726 0.410841
v -1.251228 2.620896 0.410841
v 1.308169 2.620896 0.410841
v -1.251228 2.620896 -0.589159
v 1.308169 2.620896 -0.589159
v -1.251228 0.013726 -0.589159
v 1.308169 0.013726 -0.589159
v -1.274519 2.620896 0.435099
v 1.331460 2.620896 0.435099
v 1.331460 2.620896 -0.613417
v -1.274519 2.620896 -0.613417
v -1.274519 2.716570 0.435099
v 1.331460 2.716570 0.435099
v 1.331460 2.716570 -0.613417
v -1.274519 2.716570 -0.613417
vt 0.979977 0.289535
vt 0.979977 0.783566
vt 0.853301 0.289535
vt 0.853301 0.783566
vt 0.662092 0.289535
vt 0.662092 0.783566
vt 0.535416 0.289535
vt 0.535416 0.783566
vt 0.979977 0.973488
vt 0.853301 0.973488
vt 0.979977 0.097039
vt 0.853301 0.097039
vt 0.122943 0.034963
vt 0.411893 0.034578
vt 0.412787 0.328244
vt 0.122146 0.329569
vt 0.126714 0.339410
vt 0.408916 0.338145
vt 0.410605 0.451421
vt 0.128715 0.452098
vt 0.124824 0.461957
vt 0.415113 0.461380
vt 0.413833 0.756244
vt 0.125075 0.755376
vt 0.413296 0.869124
vt 0.124570 0.868136
vt 0.524781 0.034289
vt 0.525541 0.328166
vt 0.010149 0.034613
vt 0.009300 0.329058
vt 0.412799 0.329327
vt 0.122191 0.330760
vt 0.415091 0.460127
vt 0.124823 0.460877
vn 0.000000 0.000000 1.000000
vn 0.000000 0.000000 1.000000
vn 0.000000 0.000000 1.000000
vn 0.000000 0.000000 1.000000
vn 0.000000 1.000000 0.000000
vn 0.000000 1.000000 0.000000
vn 0.000000 1.000000 0.000000
vn 0.000000 1.000000 0.000000
vn 0.000000 0.000000 -1.000000
vn 0.000000 0.000000 -1.000000
vn 0.000000 0.000000 -1.000000
vn 0.000000 0.000000 -1.000000
vn 1.000000 0.000000 0.000000
vn 1.000000 0.000000 0.000000
vn 1.000000 0.000000 0.000000
vn 1.000000 0.000000 0.000000
vn -1.000000 0.000000 0.000000
vn -1.000000 0.000000 0.000000
vn -1.000000 0.000000 0.000000
vn -1.000000 0.000000 0.000000
vn 0.000000 0.000000 1.000000
vn 0.000000 0.000000 1.000000
vn 0.000000 0.000000 1.000000
vn 0.000000 0.000000 1.000000
vn 0.000000 1.000000 0.000000
vn 0.000000 1.000000 0.000000
vn 0.000000 1.000000 0.000000
vn 0.000000 1.000000 0.000000
vn 0.000000 0.000000 -1.000000
vn 0.000000 0.000000 -1.000000
vn 0.000000 0.000000 -1.000000
vn 0.000000 0.000000 -1.000000
vn 0.000000 -1.000000 0.000000
vn 0.000000 -1.000000 0.000000
vn 0.000000 -1.000000 0.000000
vn 0.000000 -1.000000 0.000000
vn 1.000000 0.000000 0.000000
vn 1.000000 0.000000 0.000000
vn 1.000000 0.000000 0.000000
vn 1.000000 0.000000 0.000000
vn -1.000000 0.000000 0.000000
vn -1.000000 0.000000 0.000000
vn -1.000000 0.000000 0.000000
vn -1.000000 0.000000 0.000000
vn 0.000000 -1.000000 0.000005
vn 0.000000 -1.000000 0.000005
vn 0.000000 -1.000000 0.000005
vn 0.000000 -1.000000 0.000005
vn 0.000000 -1.000000 0.000000
vn 0.000000 -1.000000 0.000000
vn 0.000000 -1.000000 0.000000
vn 0.000000 -1.000000 0.000000
vn 0.000000 -1.000000 -0.000005
vn 0.000000 -1.000000 -0.000005
vn 0.000000 -1.000000 -0.000005
vn 0.000000 -1.000000 -0.000005
vn 0.000000 -1.000000 0.000000
vn 0.000000 -1.000000 0.000000
vn 0.000000 -1.000000 0.000000
vn 0.000000 -1.000000 0.000000
vn 0.000000 0.000000 1.000000
vn 0.000000 0.000000 1.000000
vn 0.000000 0.000000 1.000000
vn 0.000000 0.000000 1.000000
vn 1.000000 0.000000 0.000000
vn 1.000000 0.000000 0.000000
vn 1.000000 0.000000 0.000000
vn 1.000000 0.000000 0.000000
vn 0.000000 0.000000 -1.000000
vn 0.000000 0.000000 -1.000000
vn 0.000000 0.000000 -1.000000
vn 0.000000 0.000000 -1.000000
vn -1.000000 0.000000 0.000000
vn -1.000000 0.000000 0.000000
vn -1.000000 0.000000 0.000000
vn -1.000000 0.000000 0.000000
s off
g pCube6
usemtl initialShadingGroup
f 1/1/1 2/2/2 4/4/3 3/3/4
f 3/3/5 4/4/6 6/6/7 5/5/8
f 5/5/9 6/6/10 8/8/11 7/7/12
f 2/2/13 8/9/14 6/10/15 4/4/16
f 7/11/17 1/1/18 3/3/19 5/12/20
f 9/13/21 10/14/22 12/15/23 11/16/24
f 21/17/25 22/18/26 23/19/27 24/20/28
f 13/21/29 14/22/30 16/23/31 15/24/32
f 15/24/33 16/23/34 10/25/35 9/26/36
f 10/14/37 16/27/38 14/28/39 12/15/40
f 15/29/41 9/13/42 11/16/43 13/30/44
f 11/16/45 12/15/46 18/31/47 17/32/48
f 12/15/49 14/22/50 19/33/51 18/31/52
f 14/22/53 13/21/54 20/34/55 19/33/56
f 13/21/57 11/16/58 17/32/59 20/34/60
f 17/32/61 18/31/62 22/18/63 21/17/64
f 18/31/65 19/33/66 23/19/67 22/18/68
f 19/33/69 20/34/70 24/20/71 23/19/72
f 20/34/73 17/32/74 21/17/75 24/20/76
